<svg width="104" height="76" viewBox="0 0 104 76" fill="none" xmlns="http://www.w3.org/2000/svg">
<path d="M4.32373 32.7159L33.8805 2L45.953 18.8068L48.4507 16.875L51.1566 19.9659L56.5685 15.1364L60.9395 19.5795L70.5143 10.6932L89.4556 36H99.6547L82.7949 13.9773L61.564 36H78.4238L54.487 4.89773L35.962 26.5341H44.2878L33.8805 16.2955L19.9347 32.7159H4.32373Z" stroke="white" stroke-width="2"/>
<path d="M9.22729 60.3555C9.51375 60.3555 9.80672 60.2969 10.1062 60.1797C10.4057 60.0495 10.5554 59.8802 10.5554 59.6719C10.5554 59.6458 10.3927 59.2096 10.0671 58.3633L9.4812 56.9375C9.42912 56.8854 9.38354 56.8594 9.34448 56.8594C9.09709 56.8464 8.47209 56.8398 7.46948 56.8398C6.61011 56.8398 5.95256 56.8464 5.49683 56.8594C5.44474 56.8594 5.39917 56.8919 5.36011 56.957C5.36011 56.957 5.14526 57.4518 4.71558 58.4414C4.45516 59.0273 4.32495 59.4245 4.32495 59.6328C4.32495 59.8411 4.44214 60.0039 4.67651 60.1211C4.91089 60.2383 5.11271 60.3099 5.28198 60.3359C5.46427 60.349 5.62052 60.3555 5.75073 60.3555C5.78979 60.3685 5.80933 60.4727 5.80933 60.668C5.80933 60.8633 5.79631 61 5.77026 61.0781C5.60099 61.0651 5.25594 61.0391 4.73511 61C4.22729 60.9479 3.81063 60.9219 3.48511 60.9219C3.15959 60.9219 2.76896 60.9479 2.31323 61C1.8575 61.0391 1.50594 61.0651 1.25854 61.0781C1.20646 61.026 1.18042 60.9284 1.18042 60.7852C1.18042 60.5117 1.19344 60.375 1.21948 60.375C1.37573 60.375 1.63615 60.3099 2.00073 60.1797C2.36532 60.0365 2.59318 59.8932 2.68433 59.75C2.78849 59.5938 2.89266 59.4049 2.99683 59.1836C3.11401 58.9492 3.20516 58.7604 3.27026 58.6172L3.36792 58.3828L7.68433 48.4609C7.82756 48.1224 8.06844 47.9531 8.40698 47.9531C8.60229 47.9531 8.75854 48.0378 8.87573 48.207L12.8796 58.1094C13.127 58.7083 13.3419 59.2422 13.5242 59.7109C13.6023 59.9193 13.8171 60.082 14.1687 60.1992C14.5203 60.3034 14.7872 60.3555 14.9695 60.3555C15.0216 60.3555 15.0476 60.4661 15.0476 60.6875C15.0476 60.9089 15.0346 61.0391 15.0085 61.0781C14.9565 61.0781 14.5528 61.0521 13.7976 61C13.0554 60.9479 12.5151 60.9219 12.1765 60.9219C12.0854 60.9219 11.1023 60.974 9.22729 61.0781C9.17521 61.026 9.14917 60.8958 9.14917 60.6875C9.14917 60.4661 9.17521 60.3555 9.22729 60.3555ZM6.02417 55.6094C6.41479 55.6484 6.89657 55.668 7.46948 55.668C7.99032 55.668 8.45256 55.6549 8.8562 55.6289L8.91479 55.5312L7.50854 52.0352L5.98511 55.5312C5.98511 55.5833 5.99813 55.6094 6.02417 55.6094ZM19.0203 50.6289C19.0203 50.0169 18.9877 49.5482 18.9226 49.2227C18.8575 49.0143 18.519 48.9102 17.907 48.9102H17.7312C17.6531 48.9102 17.614 48.7799 17.614 48.5195C17.614 48.2982 17.6531 48.1875 17.7312 48.1875C18.1348 48.1484 18.5385 48.0964 18.9421 48.0312C19.3588 47.9661 19.7104 47.901 19.9968 47.8359C20.2833 47.7708 20.5372 47.7057 20.7585 47.6406C20.9929 47.5755 21.1752 47.5234 21.3054 47.4844L21.5007 47.4258H21.5398C21.5919 47.4258 21.644 47.4648 21.696 47.543C21.7481 47.6211 21.7807 47.6927 21.7937 47.7578C21.6505 48.3438 21.5789 49.0013 21.5789 49.7305L21.5593 58.0898C21.5593 58.9232 21.6049 59.5156 21.696 59.8672C21.7221 59.9583 21.9044 60.0625 22.2429 60.1797C22.5815 60.2969 22.8093 60.3555 22.9265 60.3555C22.9656 60.3555 22.9851 60.4661 22.9851 60.6875C22.9981 60.8958 22.9916 61.026 22.9656 61.0781C22.8223 61.0651 22.4122 61.0391 21.7351 61C21.071 60.9479 20.5893 60.9219 20.2898 60.9219C19.9773 60.9219 19.489 60.9479 18.825 61C18.1609 61.0391 17.7572 61.0651 17.614 61.0781C17.5619 61.026 17.5359 60.8958 17.5359 60.6875C17.5359 60.4661 17.5619 60.3555 17.614 60.3555C17.7572 60.3555 17.9981 60.2969 18.3367 60.1797C18.6752 60.0625 18.8575 59.9583 18.8835 59.8672C18.9747 59.4766 19.0203 58.9818 19.0203 58.3828V50.6289ZM31.8406 52.2891C33.0776 52.2891 34.0997 52.7188 34.907 53.5781C35.7273 54.4375 36.1375 55.4336 36.1375 56.5664C36.1375 58.0117 35.6752 59.138 34.7507 59.9453C33.8263 60.7526 32.6609 61.1562 31.2546 61.1562C31.0984 61.1562 30.9291 61.1432 30.7468 61.1172C30.5776 61.0911 30.4343 61.0586 30.3171 61.0195C30.2 60.9935 30.1348 60.9805 30.1218 60.9805C30.0697 60.9805 30.0437 61.0846 30.0437 61.293V62.2695C30.0437 63.1029 30.0893 63.6953 30.1804 64.0469C30.2065 64.138 30.3888 64.2422 30.7273 64.3594C31.0658 64.4766 31.2937 64.5352 31.4109 64.5352C31.45 64.5352 31.4695 64.6393 31.4695 64.8477C31.4825 65.069 31.476 65.2057 31.45 65.2578C31.3067 65.2448 30.8966 65.2122 30.2195 65.1602C29.5554 65.1211 29.0736 65.1016 28.7742 65.1016C28.4617 65.1016 27.9734 65.1211 27.3093 65.1602C26.6453 65.2122 26.2416 65.2448 26.0984 65.2578C26.0463 65.2057 26.0203 65.069 26.0203 64.8477C26.0203 64.6393 26.0463 64.5352 26.0984 64.5352C26.2416 64.5352 26.4825 64.4766 26.821 64.3594C27.1596 64.2422 27.3419 64.138 27.3679 64.0469C27.4591 63.6562 27.5046 63.1615 27.5046 62.5625V55.707C27.5046 54.9779 27.3875 54.4896 27.1531 54.2422C27.0619 54.138 26.9252 54.0534 26.7429 53.9883C26.5606 53.9232 26.4044 53.8776 26.2742 53.8516C26.144 53.8255 26.0789 53.806 26.0789 53.793C26.0789 53.3372 26.1114 53.1094 26.1765 53.1094C26.9708 53.1094 28.019 52.9206 29.321 52.543C29.7247 52.4128 29.9395 52.3477 29.9656 52.3477C30.0437 52.3477 30.0828 52.4323 30.0828 52.6016C30.0828 52.6797 30.0697 52.7969 30.0437 52.9531C30.6166 52.5104 31.2156 52.2891 31.8406 52.2891ZM31.5476 53.4219C31.0919 53.4219 30.7273 53.5586 30.4539 53.832C30.1804 54.1055 30.0437 54.4505 30.0437 54.8672V58.5586C30.0437 59.0534 30.2065 59.4375 30.532 59.7109C30.8575 59.9714 31.2026 60.1016 31.5671 60.1016C32.739 60.1016 33.325 59.138 33.325 57.2109C33.325 54.6849 32.7325 53.4219 31.5476 53.4219ZM42.532 52.2305C43.6778 52.2305 44.5242 52.3607 45.071 52.6211C45.2013 53.2201 45.2664 54.0273 45.2664 55.043C45.2664 55.1602 45.1817 55.2188 45.0125 55.2188C44.6088 55.2188 44.394 55.1667 44.3679 55.0625C44.2507 54.5156 44.0489 54.0859 43.7625 53.7734C43.489 53.4609 43.0463 53.3047 42.4343 53.3047C42.1479 53.3047 41.9135 53.3763 41.7312 53.5195C41.5489 53.6497 41.4578 53.8451 41.4578 54.1055C41.4578 54.4049 41.588 54.6654 41.8484 54.8867C42.1088 55.0951 42.4929 55.3229 43.0007 55.5703C43.3523 55.7396 43.6257 55.8828 43.821 56C44.0294 56.1172 44.2963 56.306 44.6218 56.5664C44.9604 56.8138 45.2078 57.1068 45.364 57.4453C45.5333 57.7839 45.6179 58.1615 45.6179 58.5781C45.6179 59.4375 45.2859 60.0885 44.6218 60.5312C43.9708 60.974 43.1375 61.1953 42.1218 61.1953C41.6661 61.1953 41.1583 61.1237 40.5984 60.9805C40.0385 60.8372 39.6348 60.6615 39.3875 60.4531C39.2312 59.5547 39.1531 58.7604 39.1531 58.0703C39.2052 58.0312 39.3028 58.0117 39.446 58.0117C39.8627 58.0117 40.0776 58.0703 40.0906 58.1875C40.3119 59.4766 41.0151 60.1211 42.2 60.1211C42.5125 60.1211 42.7729 60.0495 42.9812 59.9062C43.1895 59.763 43.2937 59.5612 43.2937 59.3008C43.2937 58.9753 43.1505 58.7018 42.864 58.4805C42.5906 58.2591 42.0893 57.9661 41.3601 57.6016C40.6049 57.237 40.045 56.8398 39.6804 56.4102C39.3158 55.9674 39.1335 55.4271 39.1335 54.7891C39.1335 53.9036 39.4721 53.2591 40.1492 52.8555C40.8263 52.4388 41.6205 52.2305 42.532 52.2305ZM59.5515 50.7656C59.5515 50.0234 59.4669 49.5547 59.2976 49.3594C59.1804 49.2161 58.933 49.0859 58.5554 48.9688C58.1908 48.8516 57.9304 48.793 57.7742 48.793C57.7221 48.793 57.6895 48.6888 57.6765 48.4805C57.6635 48.2591 57.6765 48.1224 57.7156 48.0703C58.9135 48.1745 59.7729 48.2266 60.2937 48.2266C60.6192 48.2266 61.0619 48.207 61.6218 48.168C62.1947 48.1159 62.5593 48.0833 62.7156 48.0703C62.7677 48.1745 62.7937 48.2917 62.7937 48.4219C62.7937 48.6693 62.7611 48.793 62.696 48.793C61.9799 48.793 61.4395 49.0078 61.075 49.4375C60.8927 49.6589 60.8015 50.1341 60.8015 50.8633V58.2852C60.8015 58.7539 60.8276 59.6654 60.8796 61.0195C60.8276 61.0716 60.6648 61.0977 60.3914 61.0977C60.2351 61.0977 60.0333 60.9479 59.7859 60.6484L51.8367 50.7656V58.2461C51.8367 58.9622 51.8888 59.4245 51.9929 59.6328C52.1101 59.8542 52.3835 60.0299 52.8132 60.1602C53.2429 60.2773 53.5554 60.3359 53.7507 60.3359C53.7898 60.3359 53.8093 60.4466 53.8093 60.668C53.8223 60.8893 53.8158 61.026 53.7898 61.0781C53.6726 61.0781 53.2885 61.0521 52.6375 61C51.9864 60.9479 51.4916 60.9219 51.1531 60.9219C50.8145 60.9219 50.3848 60.9479 49.864 61C49.3432 61.0391 48.9656 61.0651 48.7312 61.0781C48.6921 61.0391 48.6726 60.9219 48.6726 60.7266C48.6726 60.4792 48.6921 60.3555 48.7312 60.3555C48.8614 60.3555 49.0111 60.3424 49.1804 60.3164C49.3497 60.2904 49.5645 60.2188 49.825 60.1016C50.0854 59.9714 50.2742 59.8086 50.3914 59.6133C50.5216 59.4049 50.5867 58.9297 50.5867 58.1875V50.5117C50.5867 49.8346 50.489 49.3724 50.2937 49.125C50.2286 49.0339 50.0007 48.9557 49.6101 48.8906C49.2195 48.8255 48.933 48.793 48.7507 48.793C48.6986 48.793 48.6661 48.6888 48.6531 48.4805C48.6401 48.2591 48.6596 48.1224 48.7117 48.0703C48.92 48.0833 49.3302 48.1159 49.9421 48.168C50.5671 48.207 51.0489 48.2266 51.3875 48.2266C51.8302 48.2266 52.4682 48.1745 53.3015 48.0703C53.5229 48.513 53.9526 49.1576 54.5906 50.0039C55.2416 50.8372 56.075 51.8724 57.0906 53.1094C58.1062 54.3464 58.9135 55.362 59.5125 56.1562C59.5385 56.0651 59.5515 55.7982 59.5515 55.3555V50.7656ZM69.95 53.3438C69.4421 53.3438 69.071 53.5911 68.8367 54.0859C68.6023 54.5677 68.4851 55.043 68.4851 55.5117C68.4851 55.5898 68.5307 55.6289 68.6218 55.6289H71.1023C71.2846 55.6289 71.3757 55.5052 71.3757 55.2578C71.3757 54.763 71.239 54.3203 70.9656 53.9297C70.7052 53.5391 70.3666 53.3438 69.95 53.3438ZM70.0476 52.2695C71.2195 52.2695 72.157 52.6797 72.8601 53.5C73.5763 54.3073 73.9343 55.1341 73.9343 55.9805C73.9343 56.2799 73.8692 56.4753 73.739 56.5664C73.6218 56.6576 73.3809 56.7031 73.0164 56.7031H68.6023C68.5242 56.7031 68.4851 56.7487 68.4851 56.8398C68.4851 57.543 68.6804 58.1745 69.071 58.7344C69.4747 59.2943 70.0476 59.5742 70.7898 59.5742C71.2195 59.5742 71.6296 59.5156 72.0203 59.3984C72.4109 59.2682 72.6843 59.1576 72.8406 59.0664C72.9968 58.9622 73.2052 58.8125 73.4656 58.6172C73.5828 58.6693 73.6414 58.793 73.6414 58.9883C73.6414 59.1445 73.6153 59.2747 73.5632 59.3789C73.433 59.6914 73.0424 60.0625 72.3914 60.4922C71.7403 60.9219 71.0111 61.1367 70.2039 61.1367C69.0059 61.1367 67.9708 60.7005 67.0984 59.8281C66.239 58.9557 65.8093 57.9076 65.8093 56.6836C65.8093 55.4336 66.2 54.3854 66.9812 53.5391C67.7625 52.6927 68.7846 52.2695 70.0476 52.2695ZM89.782 53.9102C89.782 53.6237 89.6127 53.4154 89.2742 53.2852C88.9356 53.1549 88.5971 53.0898 88.2585 53.0898H88.1804C88.1283 53.0898 88.0958 52.9792 88.0828 52.7578C88.0697 52.5365 88.0893 52.3997 88.1414 52.3477C88.3236 52.3607 88.7208 52.3932 89.3328 52.4453C89.9578 52.4974 90.42 52.5234 90.7195 52.5234C90.9929 52.5234 91.377 52.4974 91.8718 52.4453C92.3666 52.3932 92.7182 52.3607 92.9265 52.3477C92.9656 52.4648 92.9851 52.5951 92.9851 52.7383C92.9851 52.9596 92.9591 53.0703 92.907 53.0703C92.7638 53.0703 92.4773 53.1745 92.0476 53.3828C91.6179 53.5781 91.351 53.793 91.2468 54.0273L88.0242 60.8047C87.9851 60.8958 87.8875 60.987 87.7312 61.0781C87.588 61.1693 87.4447 61.2148 87.3015 61.2148C87.1713 61.2148 87.0736 61.1432 87.0085 61L84.6843 55.9609L82.4578 60.7852C82.4187 60.8763 82.3341 60.9674 82.2039 61.0586C82.0736 61.1628 81.9109 61.2148 81.7156 61.2148C81.5854 61.2148 81.4812 61.1432 81.4031 61L78.1023 53.7344C78.0111 53.5521 77.8223 53.4023 77.5359 53.2852C77.2494 53.1549 77.0281 53.0898 76.8718 53.0898C76.8197 53.0898 76.7937 52.9661 76.7937 52.7188C76.7937 52.5104 76.8132 52.3867 76.8523 52.3477C77.0085 52.3607 77.3927 52.3932 78.0046 52.4453C78.6296 52.4844 79.0984 52.5039 79.4109 52.5039C79.6973 52.5039 80.1921 52.4779 80.8953 52.4258C81.6114 52.3737 82.0216 52.3477 82.1257 52.3477C82.1518 52.4258 82.1648 52.5625 82.1648 52.7578C82.1778 52.9401 82.1648 53.0378 82.1257 53.0508C81.9695 53.0508 81.7286 53.1159 81.4031 53.2461C81.0776 53.3633 80.9148 53.5065 80.9148 53.6758C80.9148 53.8451 81.4421 55.1341 82.4968 57.543C82.6401 57.2305 82.8093 56.8659 83.0046 56.4492C83.213 56.0195 83.3627 55.7135 83.4539 55.5312C83.545 55.349 83.6361 55.1471 83.7273 54.9258C83.8315 54.7044 83.8966 54.5417 83.9226 54.4375C83.9617 54.3333 83.9812 54.2552 83.9812 54.2031C83.9812 53.8906 83.9356 53.6628 83.8445 53.5195C83.7533 53.3893 83.5971 53.2721 83.3757 53.168C83.2065 53.1029 82.9395 53.0703 82.575 53.0703C82.5229 53.0703 82.4903 52.9661 82.4773 52.7578C82.4773 52.5365 82.5033 52.3997 82.5554 52.3477C82.7247 52.3607 83.1023 52.3932 83.6882 52.4453C84.2872 52.4844 84.7429 52.5039 85.0554 52.5039C85.3419 52.5039 85.8171 52.4779 86.4812 52.4258C87.1583 52.3737 87.5619 52.3477 87.6921 52.3477C87.7182 52.4128 87.7182 52.556 87.6921 52.7773C87.6791 52.9857 87.6531 53.0898 87.614 53.0898C87.3927 53.0898 87.1583 53.1354 86.9109 53.2266C86.6765 53.3177 86.5593 53.4674 86.5593 53.6758C86.5593 53.8711 87.0671 55.1667 88.0828 57.5625C88.3171 57.0547 88.5841 56.4883 88.8835 55.8633C89.196 55.2383 89.4239 54.776 89.5671 54.4766C89.7104 54.1771 89.782 53.9883 89.782 53.9102ZM99.4187 52.2305C100.565 52.2305 101.411 52.3607 101.958 52.6211C102.088 53.2201 102.153 54.0273 102.153 55.043C102.153 55.1602 102.068 55.2188 101.899 55.2188C101.496 55.2188 101.281 55.1667 101.255 55.0625C101.137 54.5156 100.936 54.0859 100.649 53.7734C100.376 53.4609 99.933 53.3047 99.321 53.3047C99.0346 53.3047 98.8002 53.3763 98.6179 53.5195C98.4356 53.6497 98.3445 53.8451 98.3445 54.1055C98.3445 54.4049 98.4747 54.6654 98.7351 54.8867C98.9955 55.0951 99.3796 55.3229 99.8875 55.5703C100.239 55.7396 100.512 55.8828 100.708 56C100.916 56.1172 101.183 56.306 101.509 56.5664C101.847 56.8138 102.094 57.1068 102.251 57.4453C102.42 57.7839 102.505 58.1615 102.505 58.5781C102.505 59.4375 102.173 60.0885 101.509 60.5312C100.858 60.974 100.024 61.1953 99.0085 61.1953C98.5528 61.1953 98.045 61.1237 97.4851 60.9805C96.9252 60.8372 96.5216 60.6615 96.2742 60.4531C96.1179 59.5547 96.0398 58.7604 96.0398 58.0703C96.0919 58.0312 96.1895 58.0117 96.3328 58.0117C96.7494 58.0117 96.9643 58.0703 96.9773 58.1875C97.1986 59.4766 97.9018 60.1211 99.0867 60.1211C99.3992 60.1211 99.6596 60.0495 99.8679 59.9062C100.076 59.763 100.18 59.5612 100.18 59.3008C100.18 58.9753 100.037 58.7018 99.7507 58.4805C99.4773 58.2591 98.976 57.9661 98.2468 57.6016C97.4916 57.237 96.9317 56.8398 96.5671 56.4102C96.2026 55.9674 96.0203 55.4271 96.0203 54.7891C96.0203 53.9036 96.3588 53.2591 97.0359 52.8555C97.713 52.4388 98.5072 52.2305 99.4187 52.2305Z" fill="white"/>
</svg>
